<svg width="214" height="49" viewBox="0 0 214 49" fill="none" xmlns="http://www.w3.org/2000/svg">
<path d="M0.6875 0H8.96875V40.5312L8.15625 48H0.6875V0ZM30.7188 30.75V31.4062C30.7188 33.9271 30.4375 36.2396 29.875 38.3438C29.3333 40.4479 28.5104 42.2708 27.4062 43.8125C26.3021 45.3333 24.9271 46.5208 23.2812 47.375C21.6562 48.2083 19.75 48.625 17.5625 48.625C15.4792 48.625 13.6667 48.2188 12.125 47.4062C10.6042 46.5938 9.32292 45.4479 8.28125 43.9688C7.23958 42.4688 6.40625 40.7083 5.78125 38.6875C5.15625 36.6458 4.6875 34.4167 4.375 32V30.2188C4.6875 27.7812 5.15625 25.5521 5.78125 23.5312C6.40625 21.5104 7.23958 19.75 8.28125 18.25C9.32292 16.75 10.6042 15.5938 12.125 14.7812C13.6458 13.9688 15.4375 13.5625 17.5 13.5625C19.7083 13.5625 21.6354 13.9896 23.2812 14.8438C24.9479 15.6771 26.3229 16.8646 27.4062 18.4062C28.5104 19.9271 29.3333 21.7396 29.875 23.8438C30.4375 25.9271 30.7188 28.2292 30.7188 30.75ZM22.4375 31.4062V30.75C22.4375 29.3125 22.3229 27.9583 22.0938 26.6875C21.8646 25.3958 21.4896 24.2604 20.9688 23.2812C20.4479 22.3021 19.7396 21.5312 18.8438 20.9688C17.9479 20.4062 16.8229 20.125 15.4688 20.125C14.1771 20.125 13.0729 20.3438 12.1562 20.7812C11.2604 21.2188 10.5104 21.8229 9.90625 22.5938C9.32292 23.3646 8.86458 24.2708 8.53125 25.3125C8.21875 26.3542 8.01042 27.4792 7.90625 28.6875V33.5625C8.05208 35.1667 8.39583 36.6146 8.9375 37.9062C9.47917 39.1771 10.2812 40.1875 11.3438 40.9375C12.4271 41.6875 13.8229 42.0625 15.5312 42.0625C16.8646 42.0625 17.9792 41.8021 18.875 41.2812C19.7708 40.7396 20.4792 39.9896 21 39.0312C21.5208 38.0521 21.8854 36.9167 22.0938 35.625C22.3229 34.3333 22.4375 32.9271 22.4375 31.4062Z" fill="#474747"/>
<path d="M45.4688 14.1875V48H37.1875V14.1875H45.4688ZM36.625 5.34375C36.625 4.11458 37.0417 3.09375 37.875 2.28125C38.7292 1.46875 39.875 1.0625 41.3125 1.0625C42.75 1.0625 43.8854 1.46875 44.7188 2.28125C45.5729 3.09375 46 4.11458 46 5.34375C46 6.55208 45.5729 7.5625 44.7188 8.375C43.8854 9.1875 42.75 9.59375 41.3125 9.59375C39.875 9.59375 38.7292 9.1875 37.875 8.375C37.0417 7.5625 36.625 6.55208 36.625 5.34375Z" fill="#474747"/>
<path d="M69.3438 14.1875V20.125H49.9688V14.1875H69.3438ZM55.1562 5.875H63.4375V38.25C63.4375 39.25 63.5729 40.0208 63.8438 40.5625C64.1146 41.1042 64.5208 41.4688 65.0625 41.6562C65.6042 41.8438 66.25 41.9375 67 41.9375C67.5417 41.9375 68.0417 41.9062 68.5 41.8438C68.9583 41.7812 69.3438 41.7188 69.6562 41.6562L69.6875 47.8438C69 48.0729 68.2188 48.2604 67.3438 48.4062C66.4896 48.5521 65.5208 48.625 64.4375 48.625C62.5833 48.625 60.9583 48.3125 59.5625 47.6875C58.1667 47.0417 57.0833 46.0104 56.3125 44.5938C55.5417 43.1562 55.1562 41.2604 55.1562 38.9062V5.875Z" fill="#474747"/>
<path d="M91.2812 25.25V31.7812H74.1875V25.25H91.2812Z" fill="#474747"/>
<path d="M107.094 14.1875V48H98.8125V14.1875H107.094ZM98.25 5.34375C98.25 4.11458 98.6667 3.09375 99.5 2.28125C100.354 1.46875 101.5 1.0625 102.938 1.0625C104.375 1.0625 105.51 1.46875 106.344 2.28125C107.198 3.09375 107.625 4.11458 107.625 5.34375C107.625 6.55208 107.198 7.5625 106.344 8.375C105.51 9.1875 104.375 9.59375 102.938 9.59375C101.5 9.59375 100.354 9.1875 99.5 8.375C98.6667 7.5625 98.25 6.55208 98.25 5.34375Z" fill="#474747"/>
<path d="M128.844 42.125C130.01 42.125 131.052 41.8958 131.969 41.4375C132.885 40.9792 133.615 40.3333 134.156 39.5C134.719 38.6667 135.021 37.6979 135.062 36.5938H142.844C142.802 38.8854 142.156 40.9375 140.906 42.75C139.656 44.5625 137.99 46 135.906 47.0625C133.844 48.1042 131.531 48.625 128.969 48.625C126.365 48.625 124.094 48.1875 122.156 47.3125C120.219 46.4375 118.604 45.2188 117.312 43.6562C116.042 42.0938 115.083 40.2812 114.438 38.2188C113.812 36.1562 113.5 33.9479 113.5 31.5938V30.5938C113.5 28.2396 113.812 26.0312 114.438 23.9688C115.083 21.9062 116.042 20.0938 117.312 18.5312C118.604 16.9688 120.219 15.75 122.156 14.875C124.094 14 126.354 13.5625 128.938 13.5625C131.667 13.5625 134.062 14.0938 136.125 15.1562C138.208 16.2188 139.833 17.7188 141 19.6562C142.188 21.5938 142.802 23.875 142.844 26.5H135.062C135.021 25.2917 134.75 24.2083 134.25 23.25C133.75 22.2917 133.042 21.5208 132.125 20.9375C131.208 20.3542 130.094 20.0625 128.781 20.0625C127.385 20.0625 126.219 20.3542 125.281 20.9375C124.365 21.5208 123.646 22.3229 123.125 23.3438C122.625 24.3438 122.271 25.4688 122.062 26.7188C121.875 27.9479 121.781 29.2396 121.781 30.5938V31.5938C121.781 32.9688 121.875 34.2812 122.062 35.5312C122.271 36.7812 122.625 37.9062 123.125 38.9062C123.646 39.8854 124.365 40.6667 125.281 41.25C126.219 41.8333 127.406 42.125 128.844 42.125Z" fill="#474747"/>
<path d="M146.875 31.4375V30.7812C146.875 28.3021 147.229 26.0208 147.938 23.9375C148.646 21.8333 149.677 20.0104 151.031 18.4688C152.385 16.9271 154.042 15.7292 156 14.875C157.958 14 160.188 13.5625 162.688 13.5625C165.229 13.5625 167.479 14 169.438 14.875C171.417 15.7292 173.083 16.9271 174.438 18.4688C175.792 20.0104 176.823 21.8333 177.531 23.9375C178.24 26.0208 178.594 28.3021 178.594 30.7812V31.4375C178.594 33.8958 178.24 36.1771 177.531 38.2812C176.823 40.3646 175.792 42.1875 174.438 43.75C173.083 45.2917 171.427 46.4896 169.469 47.3438C167.51 48.1979 165.271 48.625 162.75 48.625C160.25 48.625 158.01 48.1979 156.031 47.3438C154.052 46.4896 152.385 45.2917 151.031 43.75C149.677 42.1875 148.646 40.3646 147.938 38.2812C147.229 36.1771 146.875 33.8958 146.875 31.4375ZM155.125 30.7812V31.4375C155.125 32.9167 155.271 34.3021 155.562 35.5938C155.854 36.8854 156.302 38.0208 156.906 39C157.51 39.9792 158.292 40.75 159.25 41.3125C160.229 41.8542 161.396 42.125 162.75 42.125C164.083 42.125 165.229 41.8542 166.188 41.3125C167.146 40.75 167.927 39.9792 168.531 39C169.156 38.0208 169.615 36.8854 169.906 35.5938C170.198 34.3021 170.344 32.9167 170.344 31.4375V30.7812C170.344 29.3229 170.198 27.9583 169.906 26.6875C169.615 25.3958 169.156 24.2604 168.531 23.2812C167.927 22.2812 167.135 21.5 166.156 20.9375C165.198 20.3542 164.042 20.0625 162.688 20.0625C161.354 20.0625 160.208 20.3542 159.25 20.9375C158.292 21.5 157.51 22.2812 156.906 23.2812C156.302 24.2604 155.854 25.3958 155.562 26.6875C155.271 27.9583 155.125 29.3229 155.125 30.7812Z" fill="#474747"/>
<path d="M192.688 21.4062V48H184.438V14.1875H192.188L192.688 21.4062ZM191.375 29.875H188.938C188.958 27.4167 189.292 25.1875 189.938 23.1875C190.583 21.1875 191.49 19.4688 192.656 18.0312C193.844 16.5938 195.25 15.4896 196.875 14.7188C198.5 13.9479 200.312 13.5625 202.312 13.5625C203.938 13.5625 205.406 13.7917 206.719 14.25C208.031 14.7083 209.156 15.4375 210.094 16.4375C211.052 17.4375 211.781 18.75 212.281 20.375C212.802 21.9792 213.062 23.9583 213.062 26.3125V48H204.75V26.25C204.75 24.7083 204.521 23.4896 204.062 22.5938C203.625 21.6979 202.979 21.0625 202.125 20.6875C201.292 20.3125 200.26 20.125 199.031 20.125C197.76 20.125 196.646 20.3854 195.688 20.9062C194.75 21.4062 193.958 22.1042 193.312 23C192.688 23.8958 192.208 24.9271 191.875 26.0938C191.542 27.2604 191.375 28.5208 191.375 29.875Z" fill="#474747"/>
</svg>
