<svg width="262" height="48" viewBox="0 0 262 48" fill="none" xmlns="http://www.w3.org/2000/svg">
<path d="M84.7812 26.7188H73.1562L73.0938 20.6562H83.0625C84.7708 20.6562 86.1979 20.4167 87.3438 19.9375C88.4896 19.4583 89.3542 18.7604 89.9375 17.8438C90.5417 16.9271 90.8438 15.8125 90.8438 14.5C90.8438 13.0417 90.5625 11.8542 90 10.9375C89.4583 10.0208 88.6042 9.35417 87.4375 8.9375C86.2708 8.5 84.7917 8.28125 83 8.28125H75.9375V47H67.3438V1.5H83C85.5833 1.5 87.8854 1.75 89.9062 2.25C91.9479 2.72917 93.6771 3.47917 95.0938 4.5C96.5104 5.52083 97.5833 6.80208 98.3125 8.34375C99.0625 9.88542 99.4375 11.7188 99.4375 13.8438C99.4375 15.7188 99 17.4479 98.125 19.0312C97.2708 20.5938 95.9479 21.8646 94.1562 22.8438C92.3854 23.8229 90.1354 24.3854 87.4062 24.5312L84.7812 26.7188ZM84.4062 47H70.625L74.2188 40.25H84.4062C86.1146 40.25 87.5208 39.9688 88.625 39.4062C89.75 38.8438 90.5833 38.0729 91.125 37.0938C91.6875 36.0938 91.9688 34.9479 91.9688 33.6562C91.9688 32.2396 91.7188 31.0104 91.2188 29.9688C90.7396 28.9271 89.9688 28.125 88.9062 27.5625C87.8646 27 86.4896 26.7188 84.7812 26.7188H75.8438L75.9062 20.6562H87.2812L89.25 23C91.875 23.0208 94.0104 23.5417 95.6562 24.5625C97.3229 25.5833 98.5521 26.8958 99.3438 28.5C100.135 30.1042 100.531 31.8333 100.531 33.6875C100.531 36.6042 99.8958 39.0521 98.625 41.0312C97.375 43.0104 95.5417 44.5 93.125 45.5C90.7292 46.5 87.8229 47 84.4062 47Z" fill="#474747"/>
<path d="M116.094 13.1875V47H107.812V13.1875H116.094ZM107.25 4.34375C107.25 3.11458 107.667 2.09375 108.5 1.28125C109.354 0.46875 110.5 0.0625 111.938 0.0625C113.375 0.0625 114.51 0.46875 115.344 1.28125C116.198 2.09375 116.625 3.11458 116.625 4.34375C116.625 5.55208 116.198 6.5625 115.344 7.375C114.51 8.1875 113.375 8.59375 111.938 8.59375C110.5 8.59375 109.354 8.1875 108.5 7.375C107.667 6.5625 107.25 5.55208 107.25 4.34375Z" fill="#474747"/>
<path d="M139.969 13.1875V19.125H120.594V13.1875H139.969ZM125.781 4.875H134.062V37.25C134.062 38.25 134.198 39.0208 134.469 39.5625C134.74 40.1042 135.146 40.4688 135.688 40.6562C136.229 40.8438 136.875 40.9375 137.625 40.9375C138.167 40.9375 138.667 40.9062 139.125 40.8438C139.583 40.7812 139.969 40.7188 140.281 40.6562L140.312 46.8438C139.625 47.0729 138.844 47.2604 137.969 47.4062C137.115 47.5521 136.146 47.625 135.062 47.625C133.208 47.625 131.583 47.3125 130.188 46.6875C128.792 46.0417 127.708 45.0104 126.938 43.5938C126.167 42.1562 125.781 40.2604 125.781 37.9062V4.875Z" fill="#474747"/>
<path d="M155.25 1.5V47H146.656V1.5H155.25Z" fill="#474747"/>
<path d="M177.781 41.125C178.948 41.125 179.99 40.8958 180.906 40.4375C181.823 39.9792 182.552 39.3333 183.094 38.5C183.656 37.6667 183.958 36.6979 184 35.5938H191.781C191.74 37.8854 191.094 39.9375 189.844 41.75C188.594 43.5625 186.927 45 184.844 46.0625C182.781 47.1042 180.469 47.625 177.906 47.625C175.302 47.625 173.031 47.1875 171.094 46.3125C169.156 45.4375 167.542 44.2188 166.25 42.6562C164.979 41.0938 164.021 39.2812 163.375 37.2188C162.75 35.1562 162.438 32.9479 162.438 30.5938V29.5938C162.438 27.2396 162.75 25.0312 163.375 22.9688C164.021 20.9062 164.979 19.0938 166.25 17.5312C167.542 15.9688 169.156 14.75 171.094 13.875C173.031 13 175.292 12.5625 177.875 12.5625C180.604 12.5625 183 13.0938 185.062 14.1562C187.146 15.2188 188.771 16.7188 189.938 18.6562C191.125 20.5938 191.74 22.875 191.781 25.5H184C183.958 24.2917 183.688 23.2083 183.188 22.25C182.688 21.2917 181.979 20.5208 181.062 19.9375C180.146 19.3542 179.031 19.0625 177.719 19.0625C176.323 19.0625 175.156 19.3542 174.219 19.9375C173.302 20.5208 172.583 21.3229 172.062 22.3438C171.562 23.3438 171.208 24.4688 171 25.7188C170.812 26.9479 170.719 28.2396 170.719 29.5938V30.5938C170.719 31.9688 170.812 33.2812 171 34.5312C171.208 35.7812 171.562 36.9062 172.062 37.9062C172.583 38.8854 173.302 39.6667 174.219 40.25C175.156 40.8333 176.344 41.125 177.781 41.125Z" fill="#474747"/>
<path d="M195.812 30.4375V29.7812C195.812 27.3021 196.167 25.0208 196.875 22.9375C197.583 20.8333 198.615 19.0104 199.969 17.4688C201.323 15.9271 202.979 14.7292 204.938 13.875C206.896 13 209.125 12.5625 211.625 12.5625C214.167 12.5625 216.417 13 218.375 13.875C220.354 14.7292 222.021 15.9271 223.375 17.4688C224.729 19.0104 225.76 20.8333 226.469 22.9375C227.177 25.0208 227.531 27.3021 227.531 29.7812V30.4375C227.531 32.8958 227.177 35.1771 226.469 37.2812C225.76 39.3646 224.729 41.1875 223.375 42.75C222.021 44.2917 220.365 45.4896 218.406 46.3438C216.448 47.1979 214.208 47.625 211.688 47.625C209.188 47.625 206.948 47.1979 204.969 46.3438C202.99 45.4896 201.323 44.2917 199.969 42.75C198.615 41.1875 197.583 39.3646 196.875 37.2812C196.167 35.1771 195.812 32.8958 195.812 30.4375ZM204.062 29.7812V30.4375C204.062 31.9167 204.208 33.3021 204.5 34.5938C204.792 35.8854 205.24 37.0208 205.844 38C206.448 38.9792 207.229 39.75 208.188 40.3125C209.167 40.8542 210.333 41.125 211.688 41.125C213.021 41.125 214.167 40.8542 215.125 40.3125C216.083 39.75 216.865 38.9792 217.469 38C218.094 37.0208 218.552 35.8854 218.844 34.5938C219.135 33.3021 219.281 31.9167 219.281 30.4375V29.7812C219.281 28.3229 219.135 26.9583 218.844 25.6875C218.552 24.3958 218.094 23.2604 217.469 22.2812C216.865 21.2812 216.073 20.5 215.094 19.9375C214.135 19.3542 212.979 19.0625 211.625 19.0625C210.292 19.0625 209.146 19.3542 208.188 19.9375C207.229 20.5 206.448 21.2812 205.844 22.2812C205.24 23.2604 204.792 24.3958 204.5 25.6875C204.208 26.9583 204.062 28.3229 204.062 29.7812Z" fill="#474747"/>
<path d="M241.625 20.4062V47H233.375V13.1875H241.125L241.625 20.4062ZM240.312 28.875H237.875C237.896 26.4167 238.229 24.1875 238.875 22.1875C239.521 20.1875 240.427 18.4688 241.594 17.0312C242.781 15.5938 244.188 14.4896 245.812 13.7188C247.438 12.9479 249.25 12.5625 251.25 12.5625C252.875 12.5625 254.344 12.7917 255.656 13.25C256.969 13.7083 258.094 14.4375 259.031 15.4375C259.99 16.4375 260.719 17.75 261.219 19.375C261.74 20.9792 262 22.9583 262 25.3125V47H253.688V25.25C253.688 23.7083 253.458 22.4896 253 21.5938C252.562 20.6979 251.917 20.0625 251.062 19.6875C250.229 19.3125 249.198 19.125 247.969 19.125C246.698 19.125 245.583 19.3854 244.625 19.9062C243.688 20.4062 242.896 21.1042 242.25 22C241.625 22.8958 241.146 23.9271 240.812 25.0938C240.479 26.2604 240.312 27.5208 240.312 28.875Z" fill="#474747"/>
<path fill-rule="evenodd" clip-rule="evenodd" d="M19.2 9.6V0H9.6V9.6H0V28.8H9.6V38.4H19.2V48H28.8V38.4H38.4V28.8H48V9.6H38.4V0H28.8V9.6H19.2ZM28.8 38.4V19.2H19.2V38.4H28.8Z" fill="#CE69AB"/>
</svg>
