<svg width="318" height="50" viewBox="0 0 318 50" fill="none" xmlns="http://www.w3.org/2000/svg">
<path d="M91.5348 40.4112C90.618 41.1124 89.1888 41.7056 87.2472 42.191C85.3056 42.7303 83.391 43 81.5034 43C78.3753 43 75.5708 42.2719 73.0899 40.8157C70.609 39.3596 68.6404 37.3371 67.1843 34.7483C65.7281 32.1596 65 29.1933 65 25.8494C65 22.5596 65.7011 19.6472 67.1034 17.1124C68.5056 14.5775 70.4742 12.609 73.009 11.2067C75.5978 9.75056 78.591 9.02247 81.9888 9.02247C83.3371 9.02247 84.6584 9.13034 85.9528 9.34607C87.3011 9.5618 88.6494 9.93933 89.9978 10.4787C90.5371 10.7483 90.9146 11.1258 91.1303 11.6112C91.4 12.0427 91.5348 12.4742 91.5348 12.9056C91.5348 13.6067 91.2921 14.227 90.8067 14.7663C90.3753 15.3056 89.782 15.5753 89.027 15.5753C88.7034 15.5753 88.3258 15.4944 87.8944 15.3326C87.0315 15.009 86.0067 14.7124 84.8202 14.4427C83.6876 14.173 82.5551 14.0382 81.4225 14.0382C79.2652 14.0382 77.3775 14.6045 75.7596 15.7371C74.1416 16.8157 72.8742 18.2719 71.9573 20.1056C71.0944 21.9393 70.6629 23.9618 70.6629 26.173C70.6629 29.4629 71.6607 32.2674 73.6562 34.5865C75.6517 36.9056 78.2944 38.0652 81.5843 38.0652C83.0404 38.0652 84.4697 37.8494 85.8719 37.418C87.2742 36.9326 88.3258 36.4202 89.027 35.8809C89.6202 35.5573 90.1326 35.3955 90.564 35.3955C91.2652 35.3955 91.8315 35.6652 92.2629 36.2045C92.6944 36.6899 92.9101 37.2562 92.9101 37.9034C92.9101 38.8742 92.4517 39.7101 91.5348 40.4112Z" fill="#313131"/>
<path d="M100.486 43C99.785 43 99.1378 42.7843 98.5446 42.3528C98.0053 41.9213 97.7356 41.3011 97.7356 40.4921V9.75056C97.7356 8.83371 98.0053 8.15955 98.5446 7.72809C99.1378 7.2427 99.785 7 100.486 7C101.187 7 101.808 7.2427 102.347 7.72809C102.94 8.15955 103.237 8.83371 103.237 9.75056V21.3191C104.1 20.4022 105.232 19.6742 106.634 19.1348C108.091 18.5955 109.439 18.3258 110.679 18.3258C113.484 18.3258 115.857 19.2966 117.799 21.2382C119.794 23.1798 120.792 26.0382 120.792 29.8135V40.4921C120.792 41.3011 120.495 41.9213 119.902 42.3528C119.309 42.7843 118.688 43 118.041 43C117.34 43 116.693 42.7843 116.1 42.3528C115.56 41.9213 115.291 41.3011 115.291 40.4921V30.2989C115.291 27.9258 114.751 26.173 113.673 25.0405C112.648 23.9079 111.273 23.3416 109.547 23.3416C107.228 23.3416 105.583 24.0697 104.612 25.5258C103.695 26.9281 103.237 28.4921 103.237 30.218V40.4921C103.237 41.3011 102.94 41.9213 102.347 42.3528C101.808 42.7843 101.187 43 100.486 43Z" fill="#313131"/>
<path d="M137.324 43C135.004 43 132.928 42.4607 131.094 41.382C129.261 40.3034 127.831 38.8202 126.807 36.9326C125.782 34.991 125.27 32.8337 125.27 30.4607C125.27 28.1416 125.782 26.0652 126.807 24.2315C127.831 22.3978 129.261 20.9685 131.094 19.9438C132.928 18.8652 135.004 18.3258 137.324 18.3258C138.834 18.3258 140.182 18.5955 141.369 19.1348C142.555 19.6202 143.58 20.2674 144.443 21.0764C144.551 20.3213 144.874 19.7551 145.413 19.3775C145.953 18.9461 146.546 18.7303 147.193 18.7303C147.894 18.7303 148.515 18.973 149.054 19.4584C149.647 19.8899 149.944 20.564 149.944 21.4809V40.4921C149.944 41.3011 149.647 41.9213 149.054 42.3528C148.515 42.7843 147.894 43 147.193 43C146.492 43 145.845 42.7843 145.252 42.3528C144.712 41.9213 144.443 41.3011 144.443 40.4921V40.1685C143.58 41.0315 142.555 41.7056 141.369 42.191C140.182 42.7303 138.834 43 137.324 43ZM137.809 37.9843C139.858 37.9843 141.476 37.3101 142.663 35.9618C143.849 34.5596 144.443 32.7258 144.443 30.4607C144.443 28.3034 143.849 26.5775 142.663 25.2831C141.476 23.9888 139.858 23.3416 137.809 23.3416C135.706 23.3416 134.007 23.9888 132.712 25.2831C131.418 26.5775 130.771 28.3034 130.771 30.4607C130.771 32.7258 131.418 34.5596 132.712 35.9618C134.007 37.3101 135.706 37.9843 137.809 37.9843Z" fill="#313131"/>
<path d="M165.181 43C163.078 43 161.352 42.3528 160.004 41.0584C158.655 39.764 157.981 37.8225 157.981 35.2337V24.9596C157.981 24.4202 157.712 24.1506 157.172 24.1506H155.716C155.015 24.1506 154.422 23.9348 153.936 23.5034C153.451 23.018 153.208 22.4247 153.208 21.7236C153.208 20.9685 153.451 20.3483 153.936 19.8629C154.422 19.3775 155.015 19.1348 155.716 19.1348H157.172C157.712 19.1348 157.981 18.8652 157.981 18.3258V11.5303C157.981 10.7753 158.224 10.182 158.709 9.75056C159.249 9.26517 159.896 9.02247 160.651 9.02247C161.46 9.02247 162.107 9.26517 162.592 9.75056C163.132 10.182 163.401 10.7753 163.401 11.5303V18.3258C163.401 18.8652 163.671 19.1348 164.21 19.1348H168.579C169.226 19.1348 169.792 19.3775 170.278 19.8629C170.763 20.3483 171.006 20.9685 171.006 21.7236C171.006 22.4247 170.763 23.018 170.278 23.5034C169.846 23.9348 169.253 24.1506 168.498 24.1506H164.21C163.671 24.1506 163.401 24.4202 163.401 24.9596V34.5056C163.401 36.7708 164.318 37.9034 166.152 37.9034C166.691 37.9034 167.258 37.8225 167.851 37.6607C168.444 37.4989 168.849 37.418 169.064 37.418C169.819 37.418 170.386 37.6607 170.763 38.1461C171.195 38.6315 171.41 39.1978 171.41 39.8449C171.41 40.3303 171.276 40.8157 171.006 41.3011C170.736 41.7326 170.305 42.0562 169.712 42.2719C169.118 42.4876 168.363 42.6494 167.446 42.7573C166.583 42.9191 165.828 43 165.181 43Z" fill="#313131"/>
<path d="M183.264 43C182.401 43 181.673 42.7034 181.08 42.1101C180.54 41.463 180.325 40.7079 180.433 39.845L183.911 12.663C184.019 11.5843 184.424 10.7753 185.125 10.236C185.88 9.69667 186.689 9.427 187.552 9.427C188.415 9.427 189.197 9.64273 189.898 10.0742C190.653 10.4517 191.165 11.045 191.435 11.854L197.826 29.9753C198.095 30.6225 198.365 30.9461 198.635 30.9461C198.958 30.9461 199.228 30.6225 199.444 29.9753L205.835 11.854C206.104 11.045 206.59 10.4517 207.291 10.0742C208.046 9.64273 208.828 9.427 209.637 9.427C210.5 9.427 211.309 9.69667 212.064 10.236C212.819 10.7753 213.251 11.5843 213.358 12.663L216.837 39.845C216.945 40.7079 216.729 41.463 216.19 42.1101C215.651 42.7034 214.922 43 214.006 43C213.304 43 212.657 42.7573 212.064 42.2719C211.525 41.7866 211.201 41.1663 211.093 40.4113L209.313 20.4292C209.26 19.7821 209.044 19.4585 208.666 19.4585C208.289 19.4585 208.019 19.7281 207.857 20.2675L202.033 36.3663C201.709 37.2292 201.251 37.8495 200.657 38.227C200.064 38.6045 199.39 38.7933 198.635 38.7933C197.179 38.7933 196.073 37.9843 195.318 36.3663L189.412 20.2675C189.197 19.7281 188.927 19.4585 188.603 19.4585C188.388 19.4585 188.226 19.7821 188.118 20.4292L186.176 40.4113C186.122 41.1663 185.799 41.7866 185.206 42.2719C184.666 42.7573 184.019 43 183.264 43Z" fill="#313131"/>
<path d="M233.726 43C229.681 43 226.526 41.8405 224.261 39.5214C221.996 37.2023 220.863 34.0742 220.863 30.1371C220.863 26.6854 221.996 23.854 224.261 21.6427C226.58 19.4315 229.546 18.3259 233.16 18.3259C236.665 18.3259 239.47 19.3506 241.573 21.4C243.677 23.3955 244.728 25.8764 244.728 28.8427C244.728 30.0292 244.405 30.9191 243.757 31.5124C243.164 32.1057 242.382 32.4023 241.411 32.4023H227.335C226.796 32.4023 226.607 32.6989 226.769 33.2922C227.2 34.8023 228.063 35.9888 229.357 36.8517C230.706 37.6607 232.216 38.0652 233.888 38.0652C235.128 38.0652 236.315 37.9034 237.447 37.5798C238.634 37.2562 239.659 36.7708 240.521 36.1236C240.791 35.9079 241.142 35.8 241.573 35.8C242.166 35.8 242.706 36.0697 243.191 36.609C243.677 37.0944 243.919 37.6877 243.919 38.3888C243.919 38.7124 243.865 39.036 243.757 39.3596C243.65 39.6832 243.407 40.0068 243.029 40.3304C241.627 41.3551 240.117 42.0562 238.499 42.4337C236.935 42.8113 235.344 43 233.726 43ZM238.418 28.1955C238.742 28.1955 238.903 28.0337 238.903 27.7101C238.903 26.4697 238.337 25.3911 237.205 24.4742C236.126 23.5573 234.778 23.0989 233.16 23.0989C231.757 23.0989 230.409 23.4764 229.115 24.2315C227.874 24.9866 227.119 25.9843 226.85 27.2248C226.85 27.2248 226.85 27.2517 226.85 27.3057C226.796 27.5214 226.769 27.7102 226.769 27.8719C226.823 28.0337 227.065 28.1146 227.497 28.1146L238.418 28.1955Z" fill="#313131"/>
<path d="M252.33 43C251.628 43 250.981 42.7843 250.388 42.3528C249.849 41.9214 249.579 41.3012 249.579 40.4922V21.4809C249.579 20.5641 249.849 19.8899 250.388 19.4585C250.981 18.9731 251.628 18.7304 252.33 18.7304C252.869 18.7304 253.381 18.8652 253.867 19.1349C254.352 19.3506 254.703 19.7551 254.918 20.3484C255.026 20.6719 255.08 20.9686 255.08 21.2382C255.889 20.3753 256.941 19.6742 258.235 19.1349C259.53 18.5955 260.797 18.3259 262.037 18.3259C265.543 18.3259 268.132 19.7281 269.804 22.5326C270.451 21.4 271.503 20.4292 272.959 19.6203C274.469 18.7573 276.303 18.3259 278.46 18.3259C281.372 18.3259 283.691 19.2967 285.417 21.2382C287.143 23.1798 288.006 26.0382 288.006 29.8135V40.4922C288.006 41.3012 287.709 41.9214 287.116 42.3528C286.523 42.7843 285.903 43 285.255 43C284.554 43 283.907 42.7843 283.314 42.3528C282.774 41.9214 282.505 41.3012 282.505 40.4922V30.2989C282.505 25.6607 280.779 23.3416 277.327 23.3416C275.386 23.3416 273.983 23.854 273.121 24.8787C272.258 25.9034 271.718 27.1169 271.503 28.5191V40.4922C271.503 41.3012 271.206 41.9214 270.613 42.3528C270.019 42.7843 269.399 43 268.752 43C268.051 43 267.404 42.7843 266.81 42.3528C266.271 41.9214 266.001 41.3012 266.001 40.4922V30.2989C266.001 27.9259 265.543 26.1731 264.626 25.0405C263.709 23.9079 262.469 23.3416 260.905 23.3416C258.586 23.3416 257.022 24.0697 256.213 25.5259C255.458 26.9281 255.08 28.4922 255.08 30.218V40.4922C255.08 41.3012 254.783 41.9214 254.19 42.3528C253.651 42.7843 253.031 43 252.33 43Z" fill="#313131"/>
<path d="M304.979 43C302.606 43 300.449 42.4607 298.507 41.3821C296.619 40.3034 295.136 38.8203 294.058 36.9326C292.979 34.991 292.44 32.8337 292.44 30.4607C292.44 28.1416 292.979 26.0652 294.058 24.2315C295.136 22.3978 296.619 20.9686 298.507 19.9439C300.449 18.8652 302.606 18.3259 304.979 18.3259C307.352 18.3259 309.482 18.8652 311.37 19.9439C313.258 20.9686 314.741 22.3978 315.819 24.2315C316.952 26.0652 317.518 28.1416 317.518 30.4607C317.518 32.8337 316.952 34.991 315.819 36.9326C314.741 38.8203 313.258 40.3034 311.37 41.3821C309.482 42.4607 307.352 43 304.979 43ZM304.979 37.9843C307.082 37.9843 308.781 37.3101 310.076 35.9618C311.37 34.5596 312.017 32.7259 312.017 30.4607C312.017 28.3034 311.37 26.5776 310.076 25.2832C308.781 23.9888 307.082 23.3416 304.979 23.3416C302.822 23.3416 301.096 23.9888 299.801 25.2832C298.561 26.5776 297.941 28.3034 297.941 30.4607C297.941 32.7259 298.561 34.5596 299.801 35.9618C301.096 37.3101 302.822 37.9843 304.979 37.9843Z" fill="#313131"/>
<path d="M0 5C0 2.23858 2.23858 0 5 0H45C47.7614 0 50 2.23858 50 5V45C50 47.7614 47.7614 50 45 50H5C2.23858 50 0 47.7614 0 45V5Z" fill="#313131"/>
<path d="M30 10H35C37.7614 10 40 12.2386 40 15V20H30V10Z" fill="#B86CA3"/>
<path d="M30 30H40V35C40 37.7614 37.7614 40 35 40H30V30Z" fill="#D5CA68"/>
<path d="M10 15C10 12.2386 12.2386 10 15 10H20V20H10V15Z" fill="#F0F0F0"/>
<path d="M10 20H20V30H10V20Z" fill="#F0F0F0"/>
<path d="M10 30H20V40H15C12.2386 40 10 37.7614 10 35V30Z" fill="#648CC9"/>
<path d="M20 30H30V40H20V30Z" fill="#F0F0F0"/>
<path d="M20 10H30V20H20V10Z" fill="#F0F0F0"/>
<path d="M40 30L40 35C40 37.7614 37.7614 40 35 40H30L40 30Z" fill="#57AFB5"/>
</svg>
