<svg width="406" height="122" viewBox="0 0 406 122" fill="none" xmlns="http://www.w3.org/2000/svg">
<path d="M41.0227 17.9545H32.5227C32.2803 16.5606 31.8333 15.3258 31.1818 14.25C30.5303 13.1591 29.7197 12.2348 28.75 11.4773C27.7803 10.7197 26.6742 10.1515 25.4318 9.77273C24.2045 9.37879 22.8788 9.18182 21.4545 9.18182C18.9242 9.18182 16.6818 9.81818 14.7273 11.0909C12.7727 12.3485 11.2424 14.197 10.1364 16.6364C9.0303 19.0606 8.47727 22.0227 8.47727 25.5227C8.47727 29.0833 9.0303 32.0833 10.1364 34.5227C11.2576 36.947 12.7879 38.7803 14.7273 40.0227C16.6818 41.25 18.9167 41.8636 21.4318 41.8636C22.8258 41.8636 24.1288 41.6818 25.3409 41.3182C26.5682 40.9394 27.6667 40.3864 28.6364 39.6591C29.6212 38.9318 30.447 38.0379 31.1136 36.9773C31.7955 35.9167 32.2652 34.7045 32.5227 33.3409L41.0227 33.3864C40.7045 35.5985 40.0152 37.6742 38.9545 39.6136C37.9091 41.553 36.5379 43.2652 34.8409 44.75C33.1439 46.2197 31.1591 47.3712 28.8864 48.2045C26.6136 49.0227 24.0909 49.4318 21.3182 49.4318C17.2273 49.4318 13.5758 48.4849 10.3636 46.5909C7.15152 44.697 4.62121 41.9621 2.77273 38.3864C0.924242 34.8106 0 30.5227 0 25.5227C0 20.5076 0.931818 16.2197 2.79545 12.6591C4.65909 9.08333 7.19697 6.34849 10.4091 4.45454C13.6212 2.56061 17.2576 1.61364 21.3182 1.61364C23.9091 1.61364 26.3182 1.97727 28.5455 2.70454C30.7727 3.43182 32.7576 4.5 34.5 5.90909C36.2424 7.30303 37.6742 9.01515 38.7955 11.0455C39.9318 13.0606 40.6742 15.3636 41.0227 17.9545Z" fill="#2F788F"/>
<path d="M63.608 49.4773C60.1989 49.4773 57.2443 48.7273 54.7443 47.2273C52.2443 45.7273 50.3049 43.6288 48.9261 40.9318C47.5625 38.2349 46.8807 35.0833 46.8807 31.4773C46.8807 27.8712 47.5625 24.7121 48.9261 22C50.3049 19.2879 52.2443 17.1818 54.7443 15.6818C57.2443 14.1818 60.1989 13.4318 63.608 13.4318C67.017 13.4318 69.9716 14.1818 72.4716 15.6818C74.9716 17.1818 76.9034 19.2879 78.267 22C79.6458 24.7121 80.3352 27.8712 80.3352 31.4773C80.3352 35.0833 79.6458 38.2349 78.267 40.9318C76.9034 43.6288 74.9716 45.7273 72.4716 47.2273C69.9716 48.7273 67.017 49.4773 63.608 49.4773ZM63.6534 42.8864C65.5019 42.8864 67.0474 42.3788 68.2898 41.3636C69.5322 40.3333 70.4564 38.9545 71.0625 37.2273C71.6837 35.5 71.9943 33.5758 71.9943 31.4545C71.9943 29.3182 71.6837 27.3864 71.0625 25.6591C70.4564 23.9167 69.5322 22.5303 68.2898 21.5C67.0474 20.4697 65.5019 19.9545 63.6534 19.9545C61.7595 19.9545 60.1837 20.4697 58.9261 21.5C57.6837 22.5303 56.7519 23.9167 56.1307 25.6591C55.5246 27.3864 55.2216 29.3182 55.2216 31.4545C55.2216 33.5758 55.5246 35.5 56.1307 37.2273C56.7519 38.9545 57.6837 40.3333 58.9261 41.3636C60.1837 42.3788 61.7595 42.8864 63.6534 42.8864Z" fill="#2F788F"/>
<path d="M95.5455 2.25V48.7955H87.3182V2.25H95.5455Z" fill="#2F788F"/>
<path d="M112.233 2.25V48.7955H104.006V2.25H112.233Z" fill="#2F788F"/>
<path d="M130.739 49.5C128.527 49.5 126.534 49.1061 124.761 48.3182C123.004 47.5152 121.61 46.3333 120.58 44.7727C119.564 43.2121 119.057 41.2879 119.057 39C119.057 37.0303 119.42 35.4015 120.148 34.1136C120.875 32.8258 121.867 31.7955 123.125 31.0227C124.383 30.25 125.799 29.6667 127.375 29.2727C128.966 28.8636 130.61 28.5682 132.307 28.3864C134.352 28.1742 136.011 27.9849 137.284 27.8182C138.557 27.6364 139.481 27.3636 140.057 27C140.648 26.6212 140.943 26.0379 140.943 25.25V25.1136C140.943 23.4015 140.436 22.0758 139.42 21.1364C138.405 20.197 136.943 19.7273 135.034 19.7273C133.019 19.7273 131.42 20.1667 130.239 21.0455C129.072 21.9242 128.284 22.9621 127.875 24.1591L120.193 23.0682C120.799 20.947 121.799 19.1742 123.193 17.75C124.587 16.3106 126.292 15.2348 128.307 14.5227C130.322 13.7955 132.549 13.4318 134.989 13.4318C136.67 13.4318 138.345 13.6288 140.011 14.0227C141.678 14.4167 143.201 15.0682 144.58 15.9773C145.958 16.8712 147.064 18.0909 147.898 19.6364C148.746 21.1818 149.17 23.1136 149.17 25.4318V48.7955H141.261V44H140.989C140.489 44.9697 139.784 45.8788 138.875 46.7273C137.981 47.5606 136.852 48.2348 135.489 48.75C134.14 49.25 132.557 49.5 130.739 49.5ZM132.875 43.4545C134.527 43.4545 135.958 43.1288 137.17 42.4773C138.383 41.8106 139.314 40.9318 139.966 39.8409C140.633 38.75 140.966 37.5606 140.966 36.2727V32.1591C140.708 32.3712 140.269 32.5682 139.648 32.75C139.042 32.9318 138.36 33.0909 137.602 33.2273C136.845 33.3636 136.095 33.4849 135.352 33.5909C134.61 33.697 133.966 33.7879 133.42 33.8636C132.193 34.0303 131.095 34.303 130.125 34.6818C129.155 35.0606 128.39 35.5909 127.83 36.2727C127.269 36.9394 126.989 37.803 126.989 38.8636C126.989 40.3788 127.542 41.5227 128.648 42.2955C129.754 43.0682 131.163 43.4545 132.875 43.4545Z" fill="#2F788F"/>
<path d="M157.807 48.7955V2.25H166.034V19.6591H166.375C166.799 18.8106 167.398 17.9091 168.17 16.9545C168.943 15.9848 169.989 15.1591 171.307 14.4773C172.625 13.7803 174.307 13.4318 176.352 13.4318C179.049 13.4318 181.481 14.1212 183.648 15.5C185.83 16.8636 187.557 18.8864 188.83 21.5682C190.117 24.2349 190.761 27.5076 190.761 31.3864C190.761 35.2197 190.133 38.4773 188.875 41.1591C187.617 43.8409 185.905 45.8864 183.739 47.2955C181.572 48.7045 179.117 49.4091 176.375 49.4091C174.375 49.4091 172.716 49.0758 171.398 48.4091C170.08 47.7424 169.019 46.9394 168.216 46C167.428 45.0455 166.814 44.1439 166.375 43.2955H165.898V48.7955H157.807ZM165.875 31.3409C165.875 33.5985 166.193 35.5758 166.83 37.2727C167.481 38.9697 168.413 40.2955 169.625 41.25C170.852 42.1894 172.337 42.6591 174.08 42.6591C175.898 42.6591 177.42 42.1742 178.648 41.2045C179.875 40.2197 180.799 38.8788 181.42 37.1818C182.057 35.4697 182.375 33.5227 182.375 31.3409C182.375 29.1742 182.064 27.25 181.443 25.5682C180.822 23.8864 179.898 22.5682 178.67 21.6136C177.443 20.6591 175.913 20.1818 174.08 20.1818C172.322 20.1818 170.83 20.6439 169.602 21.5682C168.375 22.4924 167.443 23.7879 166.807 25.4545C166.186 27.1212 165.875 29.0833 165.875 31.3409Z" fill="#2F788F"/>
<path d="M212.983 49.4773C209.574 49.4773 206.619 48.7273 204.119 47.2273C201.619 45.7273 199.68 43.6288 198.301 40.9318C196.937 38.2349 196.256 35.0833 196.256 31.4773C196.256 27.8712 196.937 24.7121 198.301 22C199.68 19.2879 201.619 17.1818 204.119 15.6818C206.619 14.1818 209.574 13.4318 212.983 13.4318C216.392 13.4318 219.347 14.1818 221.847 15.6818C224.347 17.1818 226.278 19.2879 227.642 22C229.021 24.7121 229.71 27.8712 229.71 31.4773C229.71 35.0833 229.021 38.2349 227.642 40.9318C226.278 43.6288 224.347 45.7273 221.847 47.2273C219.347 48.7273 216.392 49.4773 212.983 49.4773ZM213.028 42.8864C214.877 42.8864 216.422 42.3788 217.665 41.3636C218.907 40.3333 219.831 38.9545 220.438 37.2273C221.059 35.5 221.369 33.5758 221.369 31.4545C221.369 29.3182 221.059 27.3864 220.438 25.6591C219.831 23.9167 218.907 22.5303 217.665 21.5C216.422 20.4697 214.877 19.9545 213.028 19.9545C211.134 19.9545 209.559 20.4697 208.301 21.5C207.059 22.5303 206.127 23.9167 205.506 25.6591C204.9 27.3864 204.597 29.3182 204.597 31.4545C204.597 33.5758 204.9 35.5 205.506 37.2273C206.127 38.9545 207.059 40.3333 208.301 41.3636C209.559 42.3788 211.134 42.8864 213.028 42.8864Z" fill="#2F788F"/>
<path d="M236.693 48.7955V13.8864H244.67V19.7045H245.034C245.67 17.6894 246.761 16.1364 248.307 15.0455C249.867 13.9394 251.648 13.3864 253.648 13.3864C254.102 13.3864 254.61 13.4091 255.17 13.4545C255.746 13.4848 256.223 13.5379 256.602 13.6136V21.1818C256.254 21.0606 255.701 20.9545 254.943 20.8636C254.201 20.7576 253.481 20.7045 252.784 20.7045C251.284 20.7045 249.936 21.0303 248.739 21.6818C247.557 22.3182 246.625 23.2045 245.943 24.3409C245.261 25.4773 244.92 26.7879 244.92 28.2727V48.7955H236.693Z" fill="#2F788F"/>
<path d="M271.489 49.5C269.277 49.5 267.284 49.1061 265.511 48.3182C263.754 47.5152 262.36 46.3333 261.33 44.7727C260.314 43.2121 259.807 41.2879 259.807 39C259.807 37.0303 260.17 35.4015 260.898 34.1136C261.625 32.8258 262.617 31.7955 263.875 31.0227C265.133 30.25 266.549 29.6667 268.125 29.2727C269.716 28.8636 271.36 28.5682 273.057 28.3864C275.102 28.1742 276.761 27.9849 278.034 27.8182C279.307 27.6364 280.231 27.3636 280.807 27C281.398 26.6212 281.693 26.0379 281.693 25.25V25.1136C281.693 23.4015 281.186 22.0758 280.17 21.1364C279.155 20.197 277.693 19.7273 275.784 19.7273C273.769 19.7273 272.17 20.1667 270.989 21.0455C269.822 21.9242 269.034 22.9621 268.625 24.1591L260.943 23.0682C261.549 20.947 262.549 19.1742 263.943 17.75C265.337 16.3106 267.042 15.2348 269.057 14.5227C271.072 13.7955 273.299 13.4318 275.739 13.4318C277.42 13.4318 279.095 13.6288 280.761 14.0227C282.428 14.4167 283.951 15.0682 285.33 15.9773C286.708 16.8712 287.814 18.0909 288.648 19.6364C289.496 21.1818 289.92 23.1136 289.92 25.4318V48.7955H282.011V44H281.739C281.239 44.9697 280.534 45.8788 279.625 46.7273C278.731 47.5606 277.602 48.2348 276.239 48.75C274.89 49.25 273.307 49.5 271.489 49.5ZM273.625 43.4545C275.277 43.4545 276.708 43.1288 277.92 42.4773C279.133 41.8106 280.064 40.9318 280.716 39.8409C281.383 38.75 281.716 37.5606 281.716 36.2727V32.1591C281.458 32.3712 281.019 32.5682 280.398 32.75C279.792 32.9318 279.11 33.0909 278.352 33.2273C277.595 33.3636 276.845 33.4849 276.102 33.5909C275.36 33.697 274.716 33.7879 274.17 33.8636C272.943 34.0303 271.845 34.303 270.875 34.6818C269.905 35.0606 269.14 35.5909 268.58 36.2727C268.019 36.9394 267.739 37.803 267.739 38.8636C267.739 40.3788 268.292 41.5227 269.398 42.2955C270.504 43.0682 271.913 43.4545 273.625 43.4545Z" fill="#2F788F"/>
<path d="M315.625 13.8864V20.25H295.557V13.8864H315.625ZM300.511 5.52273H308.739V38.2955C308.739 39.4015 308.905 40.25 309.239 40.8409C309.587 41.4167 310.042 41.8106 310.602 42.0227C311.163 42.2348 311.784 42.3409 312.466 42.3409C312.981 42.3409 313.451 42.303 313.875 42.2273C314.314 42.1515 314.648 42.0833 314.875 42.0227L316.261 48.4545C315.822 48.6061 315.193 48.7727 314.375 48.9545C313.572 49.1364 312.587 49.2424 311.42 49.2727C309.36 49.3333 307.504 49.0227 305.852 48.3409C304.201 47.6439 302.89 46.5682 301.92 45.1136C300.966 43.6591 300.496 41.8409 300.511 39.6591V5.52273Z" fill="#2F788F"/>
<path d="M322.506 48.7955V13.8864H330.733V48.7955H322.506ZM326.642 8.93182C325.339 8.93182 324.218 8.5 323.278 7.63636C322.339 6.75757 321.869 5.70454 321.869 4.47727C321.869 3.23485 322.339 2.18182 323.278 1.31818C324.218 0.439393 325.339 0 326.642 0C327.96 0 329.081 0.439393 330.006 1.31818C330.945 2.18182 331.415 3.23485 331.415 4.47727C331.415 5.70454 330.945 6.75757 330.006 7.63636C329.081 8.5 327.96 8.93182 326.642 8.93182Z" fill="#2F788F"/>
<path d="M370.375 13.8864L357.943 48.7955H348.852L336.42 13.8864H345.193L353.216 39.8182H353.58L361.625 13.8864H370.375Z" fill="#2F788F"/>
<path d="M390.335 49.4773C386.835 49.4773 383.813 48.75 381.267 47.2955C378.737 45.8258 376.79 43.75 375.426 41.0682C374.063 38.3712 373.381 35.197 373.381 31.5455C373.381 27.9545 374.063 24.803 375.426 22.0909C376.805 19.3636 378.729 17.2424 381.199 15.7273C383.669 14.197 386.57 13.4318 389.903 13.4318C392.055 13.4318 394.085 13.7803 395.994 14.4773C397.919 15.1591 399.616 16.2197 401.085 17.6591C402.57 19.0985 403.737 20.9318 404.585 23.1591C405.434 25.3712 405.858 28.0076 405.858 31.0682V33.5909H377.244V28.0455H397.972C397.956 26.4697 397.616 25.0682 396.949 23.8409C396.282 22.5985 395.35 21.6212 394.153 20.9091C392.972 20.197 391.593 19.8409 390.017 19.8409C388.335 19.8409 386.858 20.25 385.585 21.0682C384.313 21.8712 383.32 22.9318 382.608 24.25C381.911 25.553 381.555 26.9848 381.54 28.5455V33.3864C381.54 35.4167 381.911 37.1591 382.653 38.6136C383.396 40.053 384.434 41.1591 385.767 41.9318C387.1 42.6894 388.661 43.0682 390.449 43.0682C391.646 43.0682 392.729 42.9015 393.699 42.5682C394.669 42.2197 395.509 41.7121 396.222 41.0455C396.934 40.3788 397.472 39.553 397.835 38.5682L405.517 39.4318C405.032 41.4621 404.108 43.2348 402.744 44.75C401.396 46.25 399.669 47.4167 397.562 48.25C395.456 49.0682 393.047 49.4773 390.335 49.4773Z" fill="#2F788F"/>
<path d="M41.0227 89.9545H32.5227C32.2803 88.5606 31.8333 87.3258 31.1818 86.25C30.5303 85.1591 29.7197 84.2348 28.75 83.4773C27.7803 82.7197 26.6742 82.1515 25.4318 81.7727C24.2045 81.3788 22.8788 81.1818 21.4545 81.1818C18.9242 81.1818 16.6818 81.8182 14.7273 83.0909C12.7727 84.3485 11.2424 86.197 10.1364 88.6364C9.0303 91.0606 8.47727 94.0227 8.47727 97.5227C8.47727 101.083 9.0303 104.083 10.1364 106.523C11.2576 108.947 12.7879 110.78 14.7273 112.023C16.6818 113.25 18.9167 113.864 21.4318 113.864C22.8258 113.864 24.1288 113.682 25.3409 113.318C26.5682 112.939 27.6667 112.386 28.6364 111.659C29.6212 110.932 30.447 110.038 31.1136 108.977C31.7955 107.917 32.2652 106.705 32.5227 105.341L41.0227 105.386C40.7045 107.598 40.0152 109.674 38.9545 111.614C37.9091 113.553 36.5379 115.265 34.8409 116.75C33.1439 118.22 31.1591 119.371 28.8864 120.205C26.6136 121.023 24.0909 121.432 21.3182 121.432C17.2273 121.432 13.5758 120.485 10.3636 118.591C7.15152 116.697 4.62121 113.962 2.77273 110.386C0.924242 106.811 0 102.523 0 97.5227C0 92.5076 0.931818 88.2197 2.79545 84.6591C4.65909 81.0833 7.19697 78.3485 10.4091 76.4545C13.6212 74.5606 17.2576 73.6136 21.3182 73.6136C23.9091 73.6136 26.3182 73.9773 28.5455 74.7045C30.7727 75.4318 32.7576 76.5 34.5 77.9091C36.2424 79.303 37.6742 81.0152 38.7955 83.0455C39.9318 85.0606 40.6742 87.3636 41.0227 89.9545Z" fill="#989435"/>
<path d="M48.3807 120.795V85.8864H56.608V120.795H48.3807ZM52.517 80.9318C51.214 80.9318 50.0928 80.5 49.1534 79.6364C48.214 78.7576 47.7443 77.7045 47.7443 76.4773C47.7443 75.2348 48.214 74.1818 49.1534 73.3182C50.0928 72.4394 51.214 72 52.517 72C53.8352 72 54.9564 72.4394 55.8807 73.3182C56.8201 74.1818 57.2898 75.2348 57.2898 76.4773C57.2898 77.7045 56.8201 78.7576 55.8807 79.6364C54.9564 80.5 53.8352 80.9318 52.517 80.9318Z" fill="#989435"/>
<path d="M65.0682 120.795V85.8864H73.0455V91.7045H73.4091C74.0455 89.6894 75.1364 88.1364 76.6818 87.0455C78.2424 85.9394 80.0227 85.3864 82.0227 85.3864C82.4773 85.3864 82.9849 85.4091 83.5455 85.4545C84.1212 85.4848 84.5985 85.5379 84.9773 85.6136V93.1818C84.6288 93.0606 84.0758 92.9545 83.3182 92.8636C82.5758 92.7576 81.8561 92.7045 81.1591 92.7045C79.6591 92.7045 78.3106 93.0303 77.1136 93.6818C75.9318 94.3182 75 95.2045 74.3182 96.3409C73.6364 97.4773 73.2955 98.7879 73.2955 100.273V120.795H65.0682Z" fill="#989435"/>
<path d="M104.233 121.477C100.748 121.477 97.7557 120.712 95.2557 119.182C92.7708 117.652 90.8542 115.538 89.5057 112.841C88.1724 110.129 87.5057 107.008 87.5057 103.477C87.5057 99.9318 88.1875 96.803 89.5511 94.0909C90.9148 91.3636 92.839 89.2424 95.3239 87.7273C97.8239 86.197 100.778 85.4318 104.188 85.4318C107.021 85.4318 109.528 85.9545 111.71 87C113.907 88.0303 115.657 89.4924 116.96 91.3864C118.263 93.2652 119.006 95.4621 119.188 97.9773H111.324C111.006 96.2955 110.248 94.8939 109.051 93.7727C107.869 92.6364 106.286 92.0682 104.301 92.0682C102.619 92.0682 101.142 92.5227 99.8693 93.4318C98.5966 94.3258 97.6042 95.6136 96.8921 97.2955C96.1951 98.9773 95.8466 100.992 95.8466 103.341C95.8466 105.72 96.1951 107.765 96.8921 109.477C97.589 111.174 98.5663 112.485 99.8239 113.409C101.097 114.318 102.589 114.773 104.301 114.773C105.513 114.773 106.597 114.545 107.551 114.091C108.521 113.621 109.331 112.947 109.983 112.068C110.634 111.189 111.081 110.121 111.324 108.864H119.188C118.991 111.333 118.263 113.523 117.006 115.432C115.748 117.326 114.036 118.811 111.869 119.886C109.703 120.947 107.157 121.477 104.233 121.477Z" fill="#989435"/>
<path d="M134.17 74.25V120.795H125.943V74.25H134.17Z" fill="#989435"/>
<path d="M158.085 121.477C154.585 121.477 151.562 120.75 149.017 119.295C146.487 117.826 144.54 115.75 143.176 113.068C141.812 110.371 141.131 107.197 141.131 103.545C141.131 99.9545 141.812 96.803 143.176 94.0909C144.555 91.3636 146.479 89.2424 148.949 87.7273C151.419 86.197 154.32 85.4318 157.653 85.4318C159.805 85.4318 161.835 85.7803 163.744 86.4773C165.669 87.1591 167.366 88.2197 168.835 89.6591C170.32 91.0985 171.487 92.9318 172.335 95.1591C173.184 97.3712 173.608 100.008 173.608 103.068V105.591H144.994V100.045H165.722C165.706 98.4697 165.366 97.0682 164.699 95.8409C164.032 94.5985 163.1 93.6212 161.903 92.9091C160.722 92.197 159.343 91.8409 157.767 91.8409C156.085 91.8409 154.608 92.25 153.335 93.0682C152.063 93.8712 151.07 94.9318 150.358 96.25C149.661 97.553 149.305 98.9848 149.29 100.545V105.386C149.29 107.417 149.661 109.159 150.403 110.614C151.146 112.053 152.184 113.159 153.517 113.932C154.85 114.689 156.411 115.068 158.199 115.068C159.396 115.068 160.479 114.902 161.449 114.568C162.419 114.22 163.259 113.712 163.972 113.045C164.684 112.379 165.222 111.553 165.585 110.568L173.267 111.432C172.782 113.462 171.858 115.235 170.494 116.75C169.146 118.25 167.419 119.417 165.312 120.25C163.206 121.068 160.797 121.477 158.085 121.477Z" fill="#989435"/>
<path d="M208.159 95.1136L200.659 95.9318C200.447 95.1742 200.076 94.4621 199.545 93.7955C199.03 93.1288 198.333 92.5909 197.455 92.1818C196.576 91.7727 195.5 91.5682 194.227 91.5682C192.515 91.5682 191.076 91.9394 189.909 92.6818C188.758 93.4242 188.189 94.3864 188.205 95.5682C188.189 96.5833 188.561 97.4091 189.318 98.0455C190.091 98.6818 191.364 99.2045 193.136 99.6136L199.091 100.886C202.394 101.598 204.848 102.727 206.455 104.273C208.076 105.818 208.894 107.841 208.909 110.341C208.894 112.538 208.25 114.477 206.977 116.159C205.72 117.826 203.97 119.129 201.727 120.068C199.485 121.008 196.909 121.477 194 121.477C189.727 121.477 186.288 120.583 183.682 118.795C181.076 116.992 179.523 114.485 179.023 111.273L187.045 110.5C187.409 112.076 188.182 113.265 189.364 114.068C190.545 114.871 192.083 115.273 193.977 115.273C195.932 115.273 197.5 114.871 198.682 114.068C199.879 113.265 200.477 112.273 200.477 111.091C200.477 110.091 200.091 109.265 199.318 108.614C198.561 107.962 197.379 107.462 195.773 107.114L189.818 105.864C186.47 105.167 183.992 103.992 182.386 102.341C180.78 100.674 179.985 98.5682 180 96.0227C179.985 93.8712 180.568 92.0076 181.75 90.4318C182.947 88.8409 184.606 87.6136 186.727 86.75C188.864 85.8712 191.326 85.4318 194.114 85.4318C198.205 85.4318 201.424 86.303 203.773 88.0455C206.136 89.7879 207.598 92.1439 208.159 95.1136Z" fill="#989435"/>
</svg>
