<svg width="497" height="70" viewBox="0 0 497 70" fill="none" xmlns="http://www.w3.org/2000/svg">
<path d="M94.104 53.432C90.68 53.432 87.752 52.728 85.32 51.32C82.888 49.912 81.016 47.912 79.704 45.32C78.424 42.696 77.784 39.608 77.784 36.056C77.784 33.4 78.152 31.016 78.888 28.904C79.624 26.76 80.68 24.936 82.056 23.432C83.464 21.896 85.176 20.728 87.192 19.928C89.24 19.128 91.544 18.728 94.104 18.728C95.992 18.728 97.8 18.984 99.528 19.496C101.288 20.008 102.808 20.744 104.088 21.704C104.632 22.056 104.984 22.488 105.144 23C105.336 23.48 105.368 23.944 105.24 24.392C105.144 24.84 104.936 25.224 104.616 25.544C104.296 25.832 103.88 25.992 103.368 26.024C102.888 26.056 102.36 25.88 101.784 25.496C100.728 24.696 99.56 24.104 98.28 23.72C97 23.336 95.656 23.144 94.248 23.144C91.816 23.144 89.768 23.656 88.104 24.68C86.44 25.672 85.176 27.128 84.312 29.048C83.448 30.968 83.016 33.304 83.016 36.056C83.016 38.808 83.448 41.16 84.312 43.112C85.176 45.032 86.44 46.504 88.104 47.528C89.768 48.52 91.816 49.016 94.248 49.016C95.656 49.016 97 48.824 98.28 48.44C99.592 48.024 100.824 47.416 101.976 46.616C102.552 46.264 103.064 46.104 103.512 46.136C103.992 46.168 104.392 46.328 104.712 46.616C105.032 46.904 105.24 47.272 105.336 47.72C105.464 48.136 105.448 48.584 105.288 49.064C105.16 49.512 104.856 49.896 104.376 50.216C103.064 51.272 101.512 52.072 99.72 52.616C97.928 53.16 96.056 53.432 94.104 53.432ZM125.03 53.432C121.83 53.432 119.03 52.728 116.63 51.32C114.262 49.88 112.422 47.864 111.11 45.272C109.83 42.648 109.19 39.576 109.19 36.056C109.19 33.4 109.558 31.016 110.294 28.904C111.03 26.76 112.086 24.936 113.462 23.432C114.838 21.896 116.502 20.728 118.454 19.928C120.406 19.128 122.598 18.728 125.03 18.728C128.262 18.728 131.062 19.432 133.43 20.84C135.798 22.248 137.622 24.248 138.902 26.84C140.214 29.432 140.87 32.488 140.87 36.008C140.87 38.664 140.502 41.064 139.766 43.208C139.03 45.352 137.958 47.192 136.55 48.728C135.174 50.264 133.51 51.432 131.558 52.232C129.606 53.032 127.43 53.432 125.03 53.432ZM125.03 49.112C127.27 49.112 129.174 48.6 130.742 47.576C132.342 46.552 133.558 45.064 134.39 43.112C135.254 41.16 135.686 38.808 135.686 36.056C135.686 31.928 134.758 28.728 132.902 26.456C131.046 24.184 128.422 23.048 125.03 23.048C122.79 23.048 120.87 23.56 119.27 24.584C117.702 25.576 116.486 27.048 115.622 29C114.79 30.952 114.374 33.304 114.374 36.056C114.374 40.152 115.302 43.352 117.158 45.656C119.046 47.96 121.67 49.112 125.03 49.112ZM149.961 53.336C149.225 53.336 148.649 53.128 148.233 52.712C147.849 52.296 147.657 51.72 147.657 50.984V21.176C147.657 20.408 147.865 19.832 148.281 19.448C148.697 19.032 149.257 18.824 149.961 18.824C150.633 18.824 151.145 18.952 151.497 19.208C151.881 19.432 152.233 19.848 152.553 20.456L165.129 43.928H163.641L176.169 20.456C176.489 19.848 176.825 19.432 177.177 19.208C177.529 18.952 178.041 18.824 178.713 18.824C179.417 18.824 179.961 19.032 180.345 19.448C180.729 19.832 180.921 20.408 180.921 21.176V50.984C180.921 51.72 180.729 52.296 180.345 52.712C179.993 53.128 179.449 53.336 178.713 53.336C177.977 53.336 177.417 53.128 177.033 52.712C176.649 52.296 176.457 51.72 176.457 50.984V26.216H177.513L166.377 46.808C166.121 47.288 165.849 47.64 165.561 47.864C165.273 48.088 164.873 48.2 164.361 48.2C163.849 48.2 163.433 48.088 163.113 47.864C162.793 47.608 162.505 47.256 162.249 46.808L151.017 26.168H152.169V50.984C152.169 51.72 151.977 52.296 151.593 52.712C151.241 53.128 150.697 53.336 149.961 53.336ZM191.401 53.336C190.601 53.336 189.977 53.112 189.529 52.664C189.113 52.216 188.905 51.592 188.905 50.792V21.368C188.905 20.536 189.113 19.912 189.529 19.496C189.977 19.048 190.601 18.824 191.401 18.824C192.201 18.824 192.809 19.048 193.225 19.496C193.673 19.912 193.897 20.536 193.897 21.368V50.792C193.897 51.592 193.689 52.216 193.273 52.664C192.857 53.112 192.233 53.336 191.401 53.336ZM204.101 53.336C203.365 53.336 202.789 53.128 202.373 52.712C201.957 52.296 201.749 51.704 201.749 50.936V21.32C201.749 20.52 201.941 19.912 202.325 19.496C202.741 19.048 203.285 18.824 203.957 18.824C204.533 18.824 204.965 18.936 205.253 19.16C205.573 19.352 205.941 19.72 206.357 20.264L226.133 46.328H224.932V21.176C224.932 20.44 225.125 19.864 225.509 19.448C225.925 19.032 226.501 18.824 227.237 18.824C228.005 18.824 228.581 19.032 228.965 19.448C229.349 19.864 229.541 20.44 229.541 21.176V50.984C229.541 51.72 229.349 52.296 228.965 52.712C228.613 53.128 228.133 53.336 227.525 53.336C226.949 53.336 226.469 53.224 226.085 53C225.733 52.776 225.349 52.392 224.932 51.848L205.253 25.832H206.357V50.936C206.357 51.704 206.165 52.296 205.781 52.712C205.397 53.128 204.837 53.336 204.101 53.336ZM253.26 53.432C249.58 53.432 246.476 52.744 243.948 51.368C241.42 49.96 239.5 47.96 238.188 45.368C236.908 42.776 236.268 39.688 236.268 36.104C236.268 33.416 236.636 31.016 237.372 28.904C238.14 26.76 239.228 24.936 240.636 23.432C242.076 21.896 243.82 20.728 245.868 19.928C247.948 19.128 250.3 18.728 252.924 18.728C254.844 18.728 256.732 18.984 258.588 19.496C260.444 19.976 262.14 20.776 263.676 21.896C264.124 22.216 264.412 22.584 264.54 23C264.668 23.416 264.668 23.848 264.54 24.296C264.444 24.712 264.236 25.08 263.916 25.4C263.628 25.72 263.26 25.912 262.812 25.976C262.396 26.04 261.932 25.912 261.42 25.592C260.172 24.728 258.86 24.104 257.484 23.72C256.108 23.304 254.588 23.096 252.924 23.096C250.428 23.096 248.316 23.608 246.588 24.632C244.892 25.656 243.612 27.144 242.748 29.096C241.884 31.016 241.452 33.352 241.452 36.104C241.452 40.36 242.46 43.592 244.476 45.8C246.492 48.008 249.484 49.112 253.452 49.112C254.892 49.112 256.3 48.984 257.676 48.728C259.084 48.44 260.428 48.04 261.708 47.528L260.7 50.024V38.84H254.508C253.868 38.84 253.356 38.68 252.972 38.36C252.62 38.008 252.444 37.528 252.444 36.92C252.444 36.312 252.62 35.864 252.972 35.576C253.356 35.256 253.868 35.096 254.508 35.096H262.812C263.484 35.096 263.996 35.272 264.348 35.624C264.7 35.976 264.876 36.488 264.876 37.16V49.256C264.876 49.832 264.764 50.328 264.54 50.744C264.348 51.128 264.012 51.416 263.532 51.608C262.156 52.152 260.54 52.6 258.684 52.952C256.828 53.272 255.02 53.432 253.26 53.432ZM296.466 53.432C294.994 53.432 293.554 53.32 292.146 53.096C290.738 52.872 289.41 52.536 288.162 52.088C286.914 51.608 285.794 51.032 284.802 50.36C284.322 50.008 283.986 49.608 283.794 49.16C283.634 48.712 283.586 48.28 283.65 47.864C283.746 47.416 283.938 47.032 284.226 46.712C284.514 46.392 284.866 46.2 285.282 46.136C285.698 46.04 286.162 46.168 286.674 46.52C288.114 47.448 289.634 48.136 291.234 48.584C292.834 49 294.578 49.208 296.466 49.208C299.186 49.208 301.186 48.728 302.466 47.768C303.778 46.776 304.434 45.496 304.434 43.928C304.434 42.648 303.97 41.64 303.042 40.904C302.114 40.136 300.562 39.528 298.386 39.08L293.25 38.024C290.21 37.384 287.938 36.328 286.434 34.856C284.962 33.384 284.226 31.4 284.226 28.904C284.226 27.4 284.53 26.024 285.138 24.776C285.778 23.528 286.658 22.456 287.778 21.56C288.898 20.632 290.242 19.928 291.81 19.448C293.378 18.968 295.09 18.728 296.946 18.728C298.93 18.728 300.786 18.984 302.514 19.496C304.274 20.008 305.842 20.792 307.218 21.848C307.634 22.136 307.906 22.504 308.034 22.952C308.194 23.368 308.226 23.784 308.13 24.2C308.066 24.616 307.89 24.968 307.602 25.256C307.314 25.544 306.946 25.72 306.498 25.784C306.05 25.816 305.554 25.656 305.01 25.304C303.762 24.472 302.482 23.88 301.17 23.528C299.89 23.144 298.466 22.952 296.898 22.952C295.33 22.952 293.954 23.192 292.77 23.672C291.618 24.152 290.722 24.824 290.082 25.688C289.474 26.552 289.17 27.576 289.17 28.76C289.17 30.104 289.602 31.176 290.466 31.976C291.33 32.776 292.77 33.384 294.786 33.8L299.874 34.856C303.074 35.528 305.458 36.568 307.026 37.976C308.594 39.384 309.378 41.256 309.378 43.592C309.378 45.096 309.074 46.456 308.466 47.672C307.858 48.856 306.994 49.88 305.874 50.744C304.754 51.608 303.394 52.28 301.794 52.76C300.226 53.208 298.45 53.432 296.466 53.432ZM329.733 53.432C326.533 53.432 323.733 52.728 321.333 51.32C318.965 49.88 317.125 47.864 315.813 45.272C314.533 42.648 313.893 39.576 313.893 36.056C313.893 33.4 314.261 31.016 314.997 28.904C315.733 26.76 316.789 24.936 318.165 23.432C319.541 21.896 321.205 20.728 323.157 19.928C325.109 19.128 327.301 18.728 329.733 18.728C332.965 18.728 335.765 19.432 338.133 20.84C340.501 22.248 342.325 24.248 343.605 26.84C344.917 29.432 345.573 32.488 345.573 36.008C345.573 38.664 345.205 41.064 344.469 43.208C343.733 45.352 342.661 47.192 341.253 48.728C339.877 50.264 338.213 51.432 336.261 52.232C334.309 53.032 332.133 53.432 329.733 53.432ZM329.733 49.112C331.973 49.112 333.877 48.6 335.445 47.576C337.045 46.552 338.261 45.064 339.093 43.112C339.957 41.16 340.389 38.808 340.389 36.056C340.389 31.928 339.461 28.728 337.605 26.456C335.749 24.184 333.125 23.048 329.733 23.048C327.493 23.048 325.573 23.56 323.973 24.584C322.405 25.576 321.189 27.048 320.325 29C319.493 30.952 319.077 33.304 319.077 36.056C319.077 40.152 320.005 43.352 321.861 45.656C323.749 47.96 326.373 49.112 329.733 49.112ZM366.952 53.432C363.752 53.432 360.952 52.728 358.552 51.32C356.184 49.88 354.344 47.864 353.032 45.272C351.752 42.648 351.112 39.576 351.112 36.056C351.112 33.4 351.48 31.016 352.216 28.904C352.952 26.76 354.008 24.936 355.384 23.432C356.76 21.896 358.424 20.728 360.376 19.928C362.328 19.128 364.52 18.728 366.952 18.728C370.184 18.728 372.984 19.432 375.352 20.84C377.72 22.248 379.544 24.248 380.824 26.84C382.136 29.432 382.792 32.488 382.792 36.008C382.792 38.664 382.424 41.064 381.688 43.208C380.952 45.352 379.88 47.192 378.472 48.728C377.096 50.264 375.432 51.432 373.48 52.232C371.528 53.032 369.352 53.432 366.952 53.432ZM366.952 49.112C369.192 49.112 371.096 48.6 372.664 47.576C374.264 46.552 375.48 45.064 376.312 43.112C377.176 41.16 377.608 38.808 377.608 36.056C377.608 31.928 376.68 28.728 374.824 26.456C372.968 24.184 370.344 23.048 366.952 23.048C364.712 23.048 362.792 23.56 361.192 24.584C359.624 25.576 358.408 27.048 357.544 29C356.712 30.952 356.296 33.304 356.296 36.056C356.296 40.152 357.224 43.352 359.08 45.656C360.968 47.96 363.592 49.112 366.952 49.112ZM391.835 53.336C391.099 53.336 390.523 53.128 390.107 52.712C389.691 52.296 389.483 51.704 389.483 50.936V21.32C389.483 20.52 389.675 19.912 390.059 19.496C390.475 19.048 391.019 18.824 391.691 18.824C392.267 18.824 392.699 18.936 392.987 19.16C393.307 19.352 393.675 19.72 394.091 20.264L413.867 46.328H412.667V21.176C412.667 20.44 412.859 19.864 413.243 19.448C413.659 19.032 414.235 18.824 414.971 18.824C415.739 18.824 416.315 19.032 416.699 19.448C417.083 19.864 417.275 20.44 417.275 21.176V50.984C417.275 51.72 417.083 52.296 416.699 52.712C416.347 53.128 415.867 53.336 415.259 53.336C414.683 53.336 414.203 53.224 413.819 53C413.467 52.776 413.083 52.392 412.667 51.848L392.987 25.832H394.091V50.936C394.091 51.704 393.899 52.296 393.515 52.712C393.131 53.128 392.571 53.336 391.835 53.336Z" fill="#6C6C6C"/>
</svg>
