<svg width="270" height="36" viewBox="0 0 270 36" fill="none" xmlns="http://www.w3.org/2000/svg">
<circle cx="265" cy="30.9341" r="5" fill="#0284C7"/>
<path d="M243.754 35.8682C240.042 35.8682 237.09 34.8355 234.895 32.7703C232.733 30.705 231.588 27.7039 231.459 23.7669C231.459 23.5087 231.459 23.1699 231.459 22.7504C231.459 22.2986 231.459 21.9437 231.459 21.6855C231.588 19.2007 232.152 17.0709 233.153 15.296C234.153 13.4889 235.557 12.1174 237.364 11.1816C239.171 10.2135 241.285 9.72943 243.705 9.72943C246.416 9.72943 248.675 10.2942 250.482 11.4236C252.321 12.5208 253.693 14.0375 254.596 15.9737C255.532 17.8776 256 20.072 256 22.5568V23.6701C256 23.9928 255.871 24.2671 255.613 24.493C255.387 24.7189 255.113 24.8318 254.79 24.8318H238.961C238.961 24.8641 238.961 24.9286 238.961 25.0254C238.961 25.09 238.961 25.1545 238.961 25.2191C238.994 26.2517 239.187 27.2037 239.542 28.075C239.93 28.914 240.462 29.5917 241.14 30.108C241.85 30.6243 242.689 30.8825 243.657 30.8825C244.463 30.8825 245.125 30.7695 245.641 30.5436C246.158 30.3177 246.577 30.0434 246.9 29.7207C247.255 29.398 247.513 29.1237 247.674 28.8978C247.965 28.5751 248.191 28.3815 248.352 28.317C248.546 28.2202 248.836 28.1718 249.223 28.1718H254.257C254.58 28.1718 254.838 28.2686 255.032 28.4622C255.258 28.6236 255.355 28.8656 255.322 29.1883C255.29 29.7046 255.016 30.35 254.499 31.1245C254.015 31.8667 253.289 32.6089 252.321 33.3511C251.353 34.0611 250.143 34.6581 248.691 35.1421C247.271 35.6262 245.625 35.8682 243.754 35.8682ZM238.961 20.427H248.449V20.3301C248.449 19.1684 248.255 18.1681 247.868 17.329C247.513 16.4577 246.981 15.7801 246.271 15.296C245.561 14.812 244.705 14.5699 243.705 14.5699C242.705 14.5699 241.85 14.812 241.14 15.296C240.43 15.7801 239.881 16.4577 239.494 17.329C239.139 18.1681 238.961 19.1684 238.961 20.3301V20.427Z" fill="#313131"/>
<path d="M222.731 35.3842C222.376 35.3842 222.085 35.2712 221.859 35.0453C221.633 34.8194 221.521 34.529 221.521 34.174V2.22667C221.521 1.8717 221.633 1.58127 221.859 1.35538C222.085 1.12949 222.376 1.01654 222.731 1.01654H227.571C227.894 1.01654 228.168 1.12949 228.394 1.35538C228.62 1.58127 228.733 1.8717 228.733 2.22667V34.174C228.733 34.529 228.62 34.8194 228.394 35.0453C228.168 35.2712 227.894 35.3842 227.571 35.3842H222.731Z" fill="#313131"/>
<path d="M208.064 35.8682C206.224 35.8682 204.692 35.5616 203.465 34.9485C202.239 34.3031 201.239 33.4964 200.464 32.5283V34.174C200.464 34.529 200.351 34.8194 200.125 35.0453C199.9 35.2712 199.609 35.3842 199.254 35.3842H194.656C194.301 35.3842 194.01 35.2712 193.784 35.0453C193.558 34.8194 193.445 34.529 193.445 34.174V2.22667C193.445 1.8717 193.558 1.58127 193.784 1.35538C194.01 1.12949 194.301 1.01654 194.656 1.01654H199.641C199.964 1.01654 200.238 1.12949 200.464 1.35538C200.69 1.58127 200.803 1.8717 200.803 2.22667V12.779C201.61 11.8754 202.61 11.1493 203.804 10.6007C204.998 10.0199 206.418 9.72946 208.064 9.72946C209.742 9.72946 211.194 10.0199 212.42 10.6007C213.679 11.1493 214.744 11.94 215.615 12.9726C216.486 13.973 217.148 15.167 217.6 16.5546C218.084 17.9422 218.342 19.475 218.374 21.1531C218.406 21.7339 218.423 22.2825 218.423 22.7988C218.423 23.2829 218.406 23.8315 218.374 24.4446C218.31 26.1549 218.035 27.72 217.551 29.1399C217.099 30.5275 216.438 31.7376 215.567 32.7703C214.728 33.7706 213.679 34.5451 212.42 35.0937C211.194 35.61 209.742 35.8682 208.064 35.8682ZM205.886 30.0596C207.112 30.0596 208.08 29.8014 208.79 29.2851C209.5 28.7365 210 28.0266 210.29 27.1553C210.613 26.284 210.807 25.332 210.871 24.2994C210.936 23.299 210.936 22.2986 210.871 21.2983C210.807 20.2656 210.613 19.3137 210.29 18.4424C210 17.5711 209.5 16.8773 208.79 16.361C208.08 15.8124 207.112 15.5381 205.886 15.5381C204.724 15.5381 203.772 15.7962 203.03 16.3125C202.32 16.8289 201.771 17.4904 201.384 18.2972C201.029 19.0716 200.835 19.9107 200.803 20.8142C200.771 21.3951 200.755 21.9921 200.755 22.6052C200.755 23.2183 200.771 23.8315 200.803 24.4446C200.868 25.4127 201.061 26.3163 201.384 27.1553C201.707 27.9943 202.239 28.6881 202.981 29.2367C203.724 29.7853 204.692 30.0596 205.886 30.0596Z" fill="#313131"/>
<path d="M183.361 35.3841C183.038 35.3841 182.764 35.2712 182.538 35.0453C182.312 34.8194 182.199 34.529 182.199 34.174V11.4236C182.199 11.0686 182.312 10.7782 182.538 10.5523C182.764 10.3264 183.038 10.2135 183.361 10.2135H188.201C188.556 10.2135 188.846 10.3264 189.072 10.5523C189.298 10.7782 189.411 11.0686 189.411 11.4236V34.174C189.411 34.529 189.298 34.8194 189.072 35.0453C188.846 35.2712 188.556 35.3841 188.201 35.3841H183.361ZM183.215 6.34106C182.893 6.34106 182.618 6.22812 182.392 6.00223C182.167 5.77634 182.054 5.48591 182.054 5.13094V1.25853C182.054 0.90356 182.167 0.61313 182.392 0.387239C182.618 0.12908 182.893 0 183.215 0H188.298C188.653 0 188.943 0.12908 189.169 0.387239C189.427 0.61313 189.556 0.90356 189.556 1.25853V5.13094C189.556 5.48591 189.427 5.77634 189.169 6.00223C188.943 6.22812 188.653 6.34106 188.298 6.34106H183.215Z" fill="#313131"/>
<path d="M173.185 35.3842C171.184 35.3842 169.474 35.0615 168.054 34.4161C166.634 33.7384 165.553 32.7057 164.811 31.3181C164.101 29.9305 163.746 28.1879 163.746 26.0904V15.9253H159.97C159.615 15.9253 159.325 15.8124 159.099 15.5865C158.873 15.3606 158.76 15.0701 158.76 14.7152V11.4236C158.76 11.0687 158.873 10.7782 159.099 10.5523C159.325 10.3265 159.615 10.2135 159.97 10.2135H163.746V2.22667C163.746 1.8717 163.859 1.58127 164.085 1.35538C164.343 1.12949 164.633 1.01654 164.956 1.01654H169.7C170.055 1.01654 170.345 1.12949 170.571 1.35538C170.797 1.58127 170.91 1.8717 170.91 2.22667V10.2135H176.96C177.283 10.2135 177.557 10.3265 177.783 10.5523C178.009 10.7782 178.122 11.0687 178.122 11.4236V14.7152C178.122 15.0701 178.009 15.3606 177.783 15.5865C177.557 15.8124 177.283 15.9253 176.96 15.9253H170.91V25.5095C170.91 26.7358 171.119 27.7039 171.539 28.4138C171.991 29.0915 172.765 29.4303 173.862 29.4303H177.396C177.719 29.4303 177.993 29.5433 178.219 29.7692C178.445 29.9951 178.558 30.2693 178.558 30.592V34.174C178.558 34.529 178.445 34.8194 178.219 35.0453C177.993 35.2712 177.719 35.3842 177.396 35.3842H173.185Z" fill="#313131"/>
<path d="M141.21 35.3841C140.887 35.3841 140.613 35.2711 140.387 35.0452C140.161 34.8194 140.048 34.5289 140.048 34.174V11.4236C140.048 11.1009 140.161 10.8266 140.387 10.6007C140.613 10.3425 140.887 10.2134 141.21 10.2134H145.953C146.276 10.2134 146.55 10.3425 146.776 10.6007C147.034 10.8266 147.164 11.1009 147.164 11.4236V13.3598C147.97 12.3594 148.955 11.5849 150.116 11.0363C151.31 10.4877 152.682 10.2134 154.231 10.2134H156.312C156.635 10.2134 156.909 10.3264 157.135 10.5523C157.361 10.7782 157.474 11.0686 157.474 11.4236V15.5864C157.474 15.9414 157.361 16.2318 157.135 16.4577C156.909 16.6836 156.635 16.7965 156.312 16.7965H152.053C150.633 16.7965 149.519 17.1999 148.713 18.0067C147.906 18.7811 147.502 19.8945 147.502 21.3466V34.174C147.502 34.5289 147.389 34.8194 147.164 35.0452C146.938 35.2711 146.647 35.3841 146.292 35.3841H141.21Z" fill="#313131"/>
<path d="M124.708 35.8682C120.997 35.8682 118.045 34.8355 115.85 32.7703C113.688 30.705 112.543 27.7039 112.413 23.7669C112.413 23.5087 112.413 23.1699 112.413 22.7504C112.413 22.2986 112.413 21.9437 112.413 21.6855C112.543 19.2007 113.107 17.0709 114.108 15.296C115.108 13.4889 116.512 12.1174 118.319 11.1816C120.126 10.2135 122.24 9.72943 124.66 9.72943C127.371 9.72943 129.63 10.2942 131.437 11.4236C133.276 12.5208 134.648 14.0375 135.551 15.9737C136.487 17.8776 136.955 20.072 136.955 22.5568V23.6701C136.955 23.9928 136.826 24.2671 136.568 24.493C136.342 24.7189 136.067 24.8318 135.745 24.8318H119.916C119.916 24.8641 119.916 24.9286 119.916 25.0254C119.916 25.09 119.916 25.1545 119.916 25.2191C119.949 26.2517 120.142 27.2037 120.497 28.075C120.884 28.914 121.417 29.5917 122.094 30.108C122.804 30.6243 123.643 30.8825 124.612 30.8825C125.418 30.8825 126.08 30.7695 126.596 30.5436C127.112 30.3177 127.532 30.0434 127.855 29.7207C128.21 29.398 128.468 29.1237 128.629 28.8978C128.92 28.5751 129.145 28.3815 129.307 28.317C129.5 28.2202 129.791 28.1718 130.178 28.1718H135.212C135.535 28.1718 135.793 28.2686 135.987 28.4622C136.213 28.6236 136.309 28.8656 136.277 29.1883C136.245 29.7046 135.971 30.35 135.454 31.1245C134.97 31.8667 134.244 32.6089 133.276 33.3511C132.308 34.0611 131.098 34.6581 129.646 35.1421C128.226 35.6262 126.58 35.8682 124.708 35.8682ZM119.916 20.427H129.404V20.3301C129.404 19.1684 129.21 18.1681 128.823 17.329C128.468 16.4577 127.935 15.7801 127.225 15.296C126.515 14.812 125.66 14.5699 124.66 14.5699C123.66 14.5699 122.804 14.812 122.094 15.296C121.385 15.7801 120.836 16.4577 120.449 17.329C120.094 18.1681 119.916 19.1684 119.916 20.3301V20.427Z" fill="#313131"/>
<path d="M97.3898 35.3841C96.9058 35.3841 96.5346 35.2711 96.2765 35.0452C96.0506 34.7871 95.857 34.4967 95.6956 34.174L86.5955 11.714C86.5309 11.5849 86.4987 11.4397 86.4987 11.2784C86.4987 10.9879 86.5955 10.7459 86.7891 10.5523C87.015 10.3264 87.2731 10.2134 87.5636 10.2134H92.2589C92.6784 10.2134 92.9849 10.3264 93.1786 10.5523C93.4045 10.7782 93.5497 10.9879 93.6142 11.1815L99.568 27.1552L105.522 11.1815C105.619 10.9879 105.764 10.7782 105.958 10.5523C106.183 10.3264 106.49 10.2134 106.877 10.2134H111.572C111.863 10.2134 112.105 10.3264 112.299 10.5523C112.524 10.7459 112.637 10.9879 112.637 11.2784C112.637 11.4397 112.621 11.5849 112.589 11.714L103.44 34.174C103.311 34.4967 103.118 34.7871 102.86 35.0452C102.601 35.2711 102.23 35.3841 101.746 35.3841H97.3898Z" fill="#313131"/>
<path d="M61.8063 35.3841C61.4836 35.3841 61.2093 35.2712 60.9834 35.0453C60.7575 34.8194 60.6446 34.529 60.6446 34.174V11.4236C60.6446 11.0686 60.7575 10.7782 60.9834 10.5523C61.2093 10.3264 61.4836 10.2135 61.8063 10.2135H66.55C66.905 10.2135 67.1954 10.3264 67.4213 10.5523C67.6472 10.7782 67.7601 11.0686 67.7601 11.4236V13.3114C68.5992 12.2788 69.6802 11.4236 71.0033 10.7459C72.3264 10.0683 73.9399 9.72943 75.8438 9.72943C77.7477 9.72943 79.4096 10.1651 80.8295 11.0364C82.2817 11.8754 83.4111 13.1178 84.2179 14.7636C85.0569 16.3771 85.4764 18.3455 85.4764 20.669V34.174C85.4764 34.529 85.3473 34.8194 85.0892 35.0453C84.8633 35.2712 84.589 35.3841 84.2663 35.3841H79.1353C78.7804 35.3841 78.4899 35.2712 78.264 35.0453C78.0382 34.8194 77.9252 34.529 77.9252 34.174V20.9594C77.9252 19.2491 77.5057 17.926 76.6667 16.9902C75.8599 16.0221 74.6659 15.538 73.0847 15.538C71.568 15.538 70.3579 16.0221 69.4543 16.9902C68.5508 17.926 68.099 19.2491 68.099 20.9594V34.174C68.099 34.529 67.986 34.8194 67.7601 35.0453C67.5343 35.2712 67.26 35.3841 66.9373 35.3841H61.8063Z" fill="#313131"/>
<path d="M44.5482 35.8682C41.8698 35.8682 39.627 35.4325 37.8199 34.5612C36.0128 33.6577 34.6252 32.383 33.6571 30.7372C32.7212 29.0915 32.2049 27.1714 32.1081 24.977C32.0758 24.3316 32.0597 23.6056 32.0597 22.7988C32.0597 21.9598 32.0758 21.2337 32.1081 20.6206C32.2049 18.3939 32.7535 16.4739 33.7539 14.8604C34.7542 13.2146 36.158 11.9561 37.9651 11.0848C39.7722 10.1812 41.9666 9.72943 44.5482 9.72943C47.0975 9.72943 49.2758 10.1812 51.0829 11.0848C52.89 11.9561 54.2938 13.2146 55.2941 14.8604C56.2945 16.4739 56.8431 18.3939 56.9399 20.6206C57.0044 21.2337 57.0367 21.9598 57.0367 22.7988C57.0367 23.6056 57.0044 24.3316 56.9399 24.977C56.8431 27.1714 56.3106 29.0915 55.3425 30.7372C54.4067 32.383 53.0352 33.6577 51.2281 34.5612C49.421 35.4325 47.1943 35.8682 44.5482 35.8682ZM44.5482 30.5436C46.1294 30.5436 47.3234 30.0596 48.1302 29.0915C48.9369 28.0911 49.3726 26.6389 49.4371 24.735C49.4694 24.251 49.4855 23.6056 49.4855 22.7988C49.4855 21.9921 49.4694 21.3467 49.4371 20.8626C49.3726 18.9909 48.9369 17.5549 48.1302 16.5545C47.3234 15.5542 46.1294 15.054 44.5482 15.054C42.967 15.054 41.7568 15.5542 40.9178 16.5545C40.1111 17.5549 39.6754 18.9909 39.6109 20.8626C39.5786 21.3467 39.5625 21.9921 39.5625 22.7988C39.5625 23.6056 39.5786 24.251 39.6109 24.735C39.6754 26.6389 40.1111 28.0911 40.9178 29.0915C41.7568 30.0596 42.967 30.5436 44.5482 30.5436Z" fill="#313131"/>
<path d="M14.6183 35.8682C11.585 35.8682 9.00335 35.368 6.87352 34.3676C4.77597 33.335 3.14633 31.8506 1.98461 29.9144C0.822887 27.9459 0.177485 25.5579 0.0484052 22.7504C0.0161351 21.4274 0 20.0075 0 18.4908C0 16.9741 0.0161351 15.5219 0.0484052 14.1343C0.177485 11.3591 0.822887 9.00338 1.98461 7.06718C3.1786 5.0987 4.84051 3.59815 6.97033 2.5655C9.10016 1.53286 11.6495 1.01654 14.6183 1.01654C16.7804 1.01654 18.7489 1.29084 20.5238 1.83943C22.2986 2.38802 23.8314 3.17863 25.1222 4.21128C26.413 5.24392 27.4134 6.45404 28.1234 7.84166C28.8333 9.22927 29.2205 10.7782 29.2851 12.4885C29.2851 12.779 29.1721 13.021 28.9462 13.2146C28.7526 13.4082 28.5106 13.5051 28.2202 13.5051H22.702C22.3147 13.5051 22.0082 13.4082 21.7823 13.2146C21.5564 13.021 21.3789 12.6983 21.2498 12.2465C20.7658 10.3426 19.959 9.03565 18.8296 8.32571C17.7001 7.61577 16.2964 7.2608 14.6183 7.2608C12.6176 7.2608 11.0364 7.80939 9.87464 8.90657C8.71292 10.0038 8.08365 11.827 7.98684 14.3763C7.89003 17.0225 7.89003 19.7332 7.98684 22.5084C8.08365 25.0577 8.71292 26.881 9.87464 27.9782C11.0364 29.0754 12.6176 29.6239 14.6183 29.6239C16.2964 29.6239 17.7001 29.269 18.8296 28.559C19.9913 27.8168 20.7981 26.5099 21.2498 24.6382C21.3789 24.1542 21.5564 23.8315 21.7823 23.6701C22.0082 23.4765 22.3147 23.3797 22.702 23.3797H28.2202C28.5106 23.3797 28.7526 23.4765 28.9462 23.6701C29.1721 23.8637 29.2851 24.1058 29.2851 24.3962C29.2205 26.1065 28.8333 27.6555 28.1234 29.0431C27.4134 30.4307 26.413 31.6408 25.1222 32.6735C23.8314 33.7061 22.2986 34.4967 20.5238 35.0453C18.7489 35.5939 16.7804 35.8682 14.6183 35.8682Z" fill="#313131"/>
</svg>
